<svg width="98" height="98" viewBox="0 0 98 98" fill="none" xmlns="http://www.w3.org/2000/svg">
<path d="M38.7917 63.6348V34.3654C38.7923 33.9992 38.8914 33.6399 39.0786 33.3252C39.2658 33.0104 39.5342 32.7518 39.8557 32.5764C40.1772 32.4011 40.5399 32.3154 40.9059 32.3284C41.2719 32.3415 41.6276 32.4527 41.9359 32.6504L64.7045 47.281C64.9928 47.4657 65.23 47.72 65.3943 48.0204C65.5586 48.3208 65.6448 48.6577 65.6448 49.0001C65.6448 49.3425 65.5586 49.6794 65.3943 49.9798C65.23 50.2802 64.9928 50.5345 64.7045 50.7192L41.9359 65.3538C41.6276 65.5516 41.2719 65.6628 40.9059 65.6758C40.5399 65.6888 40.1772 65.6032 39.8557 65.4278C39.5342 65.2524 39.2658 64.9938 39.0786 64.6791C38.8914 64.3643 38.7923 64.005 38.7917 63.6388V63.6348Z" fill="white"/>
<path d="M4.08331 49.0002C4.08331 24.1939 24.1937 4.0835 49 4.0835C73.8062 4.0835 93.9166 24.1939 93.9166 49.0002C93.9166 73.8064 73.8062 93.9168 49 93.9168C24.1937 93.9168 4.08331 73.8064 4.08331 49.0002ZM49 10.2085C38.7118 10.2085 28.845 14.2955 21.5701 21.5703C14.2953 28.8452 10.2083 38.712 10.2083 49.0002C10.2083 59.2883 14.2953 69.1552 21.5701 76.43C28.845 83.7048 38.7118 87.7918 49 87.7918C59.2882 87.7918 69.155 83.7048 76.4298 76.43C83.7047 69.1552 87.7916 59.2883 87.7916 49.0002C87.7916 38.712 83.7047 28.8452 76.4298 21.5703C69.155 14.2955 59.2882 10.2085 49 10.2085Z" fill="white"/>
</svg>
