<svg width="202" height="31" viewBox="0 0 202 31" fill="none" xmlns="http://www.w3.org/2000/svg">
<path d="M15.375 0C11.2973 0 7.3866 1.61986 4.50323 4.50323C1.61986 7.3866 0 11.2973 0 15.375C0 19.4527 1.61986 23.3634 4.50323 26.2468C7.3866 29.1301 11.2973 30.75 15.375 30.75C19.4527 30.75 23.3634 29.1301 26.2468 26.2468C29.1301 23.3634 30.75 19.4527 30.75 15.375C30.75 11.2973 29.1301 7.3866 26.2468 4.50323C23.3634 1.61986 19.4527 0 15.375 0ZM23.91 16.26C23.7208 16.5089 23.4586 16.6924 23.16 16.785L20.745 17.595C20.007 17.8472 19.3354 18.2625 18.78 18.81C18.2283 19.3621 17.8124 20.0348 17.565 20.775L16.74 23.19C16.629 23.4623 16.4479 23.7004 16.215 23.88C15.966 24.0604 15.6675 24.1599 15.36 24.165C15.051 24.1695 14.7495 24.0691 14.505 23.88C14.2555 23.7009 14.0671 23.4496 13.965 23.16L13.17 20.745C12.9229 20.0022 12.5052 19.3276 11.9504 18.7754C11.3955 18.2231 10.719 17.8086 9.975 17.565L7.575 16.77C7.28539 16.6679 7.03407 16.4795 6.855 16.23C6.66802 15.9844 6.56778 15.6837 6.57 15.375C6.57202 15.0624 6.67166 14.7582 6.855 14.505C7.02727 14.2619 7.27515 14.0825 7.56 13.995L9.975 13.185C10.7215 12.9322 11.4028 12.5173 11.97 11.97C12.525 11.409 12.9405 10.725 13.185 9.975L13.995 7.605C14.0849 7.3212 14.2572 7.07056 14.49 6.885C14.7292 6.68298 15.0319 6.57148 15.345 6.57C15.6426 6.56489 15.935 6.64843 16.185 6.81C16.449 6.9741 16.6498 7.22251 16.755 7.515L17.565 9.96C17.817 10.7145 18.237 11.4015 18.795 11.97C19.3587 12.5142 20.0345 12.9289 20.775 13.185L23.19 14.025C23.477 14.1165 23.7251 14.3013 23.895 14.55C24.0701 14.8008 24.1643 15.0991 24.165 15.405C24.1635 15.708 24.075 16.005 23.91 16.26Z" fill="white"/>
<path d="M47.5214 23.375V7.535H53.7804C53.9344 7.535 54.1178 7.54233 54.3304 7.557C54.5431 7.56433 54.7484 7.58633 54.9464 7.623C55.8044 7.755 56.5231 8.04833 57.1024 8.503C57.6891 8.95767 58.1291 9.53333 58.4224 10.23C58.7158 10.9193 58.8624 11.6857 58.8624 12.529C58.8624 13.365 58.7121 14.1313 58.4114 14.828C58.1181 15.5173 57.6781 16.093 57.0914 16.555C56.5121 17.0097 55.7971 17.303 54.9464 17.435C54.7484 17.4643 54.5431 17.4863 54.3304 17.501C54.1178 17.5157 53.9344 17.523 53.7804 17.523H49.4794V23.375H47.5214ZM49.4794 15.664H53.7144C53.8538 15.664 54.0114 15.6567 54.1874 15.642C54.3708 15.6273 54.5431 15.6017 54.7044 15.565C55.2104 15.4477 55.6211 15.235 55.9364 14.927C56.2591 14.6117 56.4938 14.245 56.6404 13.827C56.7871 13.4017 56.8604 12.969 56.8604 12.529C56.8604 12.089 56.7871 11.66 56.6404 11.242C56.4938 10.8167 56.2591 10.4463 55.9364 10.131C55.6211 9.81567 55.2104 9.603 54.7044 9.493C54.5431 9.449 54.3708 9.42333 54.1874 9.416C54.0114 9.40133 53.8538 9.394 53.7144 9.394H49.4794V15.664Z" fill="white"/>
<path d="M61.0566 23.375V11.495H62.8056V14.366L62.5196 13.992C62.6589 13.6253 62.8386 13.288 63.0586 12.98C63.2859 12.672 63.5389 12.419 63.8176 12.221C64.1256 11.9717 64.4739 11.781 64.8626 11.649C65.2513 11.517 65.6473 11.44 66.0506 11.418C66.4539 11.3887 66.8316 11.4143 67.1836 11.495V13.332C66.7729 13.222 66.3219 13.1927 65.8306 13.244C65.3393 13.2953 64.8846 13.475 64.4666 13.783C64.0853 14.0543 63.7883 14.3843 63.5756 14.773C63.3703 15.1617 63.2273 15.5833 63.1466 16.038C63.0659 16.4853 63.0256 16.9437 63.0256 17.413V23.375H61.0566Z" fill="white"/>
<path d="M74.1088 23.705C72.9281 23.705 71.9088 23.4373 71.0508 22.902C70.2001 22.3667 69.5438 21.626 69.0818 20.68C68.6198 19.734 68.3888 18.6487 68.3888 17.424C68.3888 16.1773 68.6235 15.0847 69.0928 14.146C69.5621 13.2073 70.2258 12.4777 71.0838 11.957C71.9418 11.429 72.9501 11.165 74.1088 11.165C75.2968 11.165 76.3198 11.4327 77.1778 11.968C78.0358 12.496 78.6921 13.233 79.1468 14.179C79.6088 15.1177 79.8398 16.1993 79.8398 17.424C79.8398 18.6633 79.6088 19.756 79.1468 20.702C78.6848 21.6407 78.0248 22.3777 77.1668 22.913C76.3088 23.441 75.2895 23.705 74.1088 23.705ZM74.1088 21.846C75.3408 21.846 76.2575 21.4353 76.8588 20.614C77.4601 19.7927 77.7608 18.7293 77.7608 17.424C77.7608 16.082 77.4565 15.015 76.8478 14.223C76.2391 13.4237 75.3261 13.024 74.1088 13.024C73.2801 13.024 72.5981 13.211 72.0628 13.585C71.5275 13.959 71.1278 14.476 70.8638 15.136C70.5998 15.796 70.4678 16.5587 70.4678 17.424C70.4678 18.7587 70.7758 19.8293 71.3918 20.636C72.0078 21.4427 72.9135 21.846 74.1088 21.846Z" fill="white"/>
<path d="M96.4627 23.375L96.4737 15.774C96.4737 14.8867 96.2354 14.1937 95.7587 13.695C95.2894 13.189 94.677 12.936 93.9217 12.936C93.4817 12.936 93.0637 13.0387 92.6677 13.244C92.2717 13.442 91.949 13.7573 91.6997 14.19C91.4503 14.6153 91.3257 15.1617 91.3257 15.829L90.2917 15.411C90.277 14.5677 90.4493 13.8307 90.8087 13.2C91.1753 12.562 91.674 12.067 92.3047 11.715C92.9353 11.363 93.6467 11.187 94.4387 11.187C95.678 11.187 96.6533 11.5647 97.3647 12.32C98.076 13.068 98.4317 14.0763 98.4317 15.345L98.4207 23.375H96.4627ZM82.2507 23.375V11.495H83.9997V14.674H84.2197V23.375H82.2507ZM89.3677 23.375L89.3787 15.851C89.3787 14.9417 89.144 14.2303 88.6747 13.717C88.2054 13.1963 87.582 12.936 86.8047 12.936C86.0347 12.936 85.4113 13.2 84.9347 13.728C84.458 14.256 84.2197 14.9563 84.2197 15.829L83.1857 15.213C83.1857 14.443 83.369 13.7537 83.7357 13.145C84.1023 12.5363 84.601 12.0597 85.2317 11.715C85.8624 11.363 86.5773 11.187 87.3767 11.187C88.176 11.187 88.8727 11.3557 89.4667 11.693C90.0607 12.0303 90.519 12.5143 90.8417 13.145C91.1644 13.7683 91.3257 14.5127 91.3257 15.378L91.3147 23.375H89.3677Z" fill="white"/>
<path d="M106.753 23.705C105.638 23.705 104.7 23.43 103.937 22.88C103.174 22.3227 102.595 21.571 102.199 20.625C101.81 19.6717 101.616 18.6047 101.616 17.424C101.616 16.2287 101.81 15.158 102.199 14.212C102.595 13.266 103.174 12.5217 103.937 11.979C104.707 11.4363 105.649 11.165 106.764 11.165C107.864 11.165 108.81 11.44 109.602 11.99C110.401 12.5327 111.014 13.277 111.439 14.223C111.864 15.169 112.077 16.236 112.077 17.424C112.077 18.612 111.864 19.679 111.439 20.625C111.014 21.571 110.401 22.3227 109.602 22.88C108.81 23.43 107.86 23.705 106.753 23.705ZM101.286 28.655V11.495H103.035V20.24H103.255V28.655H101.286ZM106.511 21.912C107.296 21.912 107.944 21.714 108.458 21.318C108.971 20.922 109.356 20.3867 109.613 19.712C109.87 19.03 109.998 18.2673 109.998 17.424C109.998 16.588 109.87 15.8327 109.613 15.158C109.364 14.4833 108.975 13.948 108.447 13.552C107.926 13.156 107.262 12.958 106.456 12.958C105.686 12.958 105.048 13.1487 104.542 13.53C104.036 13.904 103.658 14.4283 103.409 15.103C103.16 15.7703 103.035 16.544 103.035 17.424C103.035 18.2893 103.156 19.063 103.398 19.745C103.647 20.4197 104.029 20.9513 104.542 21.34C105.055 21.7213 105.712 21.912 106.511 21.912Z" fill="white"/>
<path d="M121.121 23.375C120.417 23.5143 119.721 23.5693 119.031 23.54C118.349 23.518 117.741 23.3823 117.205 23.133C116.67 22.8763 116.263 22.4803 115.984 21.945C115.75 21.4757 115.621 21.0027 115.599 20.526C115.585 20.042 115.577 19.4957 115.577 18.887V8.195H117.535V18.799C117.535 19.283 117.539 19.6973 117.546 20.042C117.561 20.3867 117.638 20.6837 117.777 20.933C118.041 21.4023 118.459 21.6773 119.031 21.758C119.611 21.8387 120.307 21.8167 121.121 21.692V23.375ZM113.168 13.112V11.495H121.121V13.112H113.168Z" fill="white"/>
<path d="M126.745 23.375L122.433 11.495H124.413L127.746 20.878L131.068 11.495H133.059L128.747 23.375H126.745Z" fill="white"/>
<path d="M139.767 23.705C138.601 23.705 137.582 23.4483 136.709 22.935C135.844 22.4143 135.169 21.692 134.685 20.768C134.201 19.8367 133.959 18.7513 133.959 17.512C133.959 16.214 134.197 15.092 134.674 14.146C135.151 13.1927 135.814 12.4593 136.665 11.946C137.523 11.4253 138.528 11.165 139.679 11.165C140.874 11.165 141.89 11.44 142.726 11.99C143.569 12.54 144.2 13.3247 144.618 14.344C145.043 15.3633 145.227 16.577 145.168 17.985H143.188V17.281C143.166 15.8217 142.869 14.7327 142.297 14.014C141.725 13.288 140.874 12.925 139.745 12.925C138.535 12.925 137.615 13.3137 136.984 14.091C136.353 14.8683 136.038 15.983 136.038 17.435C136.038 18.8357 136.353 19.921 136.984 20.691C137.615 21.461 138.513 21.846 139.679 21.846C140.464 21.846 141.146 21.6663 141.725 21.307C142.304 20.9477 142.759 20.4307 143.089 19.756L144.97 20.405C144.508 21.4537 143.811 22.2677 142.88 22.847C141.956 23.419 140.918 23.705 139.767 23.705ZM135.378 17.985V16.412H144.156V17.985H135.378Z" fill="white"/>
<path d="M147.617 23.375V11.495H149.366V14.366L149.08 13.992C149.219 13.6253 149.399 13.288 149.619 12.98C149.846 12.672 150.099 12.419 150.378 12.221C150.686 11.9717 151.034 11.781 151.423 11.649C151.812 11.517 152.208 11.44 152.611 11.418C153.014 11.3887 153.392 11.4143 153.744 11.495V13.332C153.333 13.222 152.882 13.1927 152.391 13.244C151.9 13.2953 151.445 13.475 151.027 13.783C150.646 14.0543 150.349 14.3843 150.136 14.773C149.931 15.1617 149.788 15.5833 149.707 16.038C149.626 16.4853 149.586 16.9437 149.586 17.413V23.375H147.617Z" fill="white"/>
<path d="M159.882 23.694C158.467 23.694 157.305 23.386 156.395 22.77C155.493 22.1467 154.94 21.2777 154.734 20.163L156.736 19.844C156.898 20.4893 157.268 21.0027 157.847 21.384C158.427 21.758 159.145 21.945 160.003 21.945C160.817 21.945 161.455 21.7763 161.917 21.439C162.38 21.1017 162.61 20.6433 162.61 20.064C162.61 19.7267 162.533 19.4553 162.379 19.25C162.225 19.0373 161.906 18.8393 161.422 18.656C160.946 18.4727 160.223 18.2527 159.255 17.996C158.207 17.7173 157.382 17.4277 156.78 17.127C156.179 16.8263 155.75 16.478 155.493 16.082C155.237 15.686 155.108 15.2057 155.108 14.641C155.108 13.9443 155.299 13.3357 155.68 12.815C156.062 12.287 156.593 11.88 157.275 11.594C157.965 11.308 158.764 11.165 159.673 11.165C160.575 11.165 161.382 11.308 162.093 11.594C162.805 11.88 163.377 12.287 163.809 12.815C164.249 13.3357 164.51 13.9443 164.59 14.641L162.588 15.004C162.493 14.366 162.185 13.8637 161.664 13.497C161.151 13.1303 160.487 12.936 159.673 12.914C158.903 12.8847 158.276 13.0203 157.792 13.321C157.316 13.6217 157.077 14.0287 157.077 14.542C157.077 14.828 157.165 15.0737 157.341 15.279C157.525 15.4843 157.859 15.6787 158.342 15.862C158.834 16.0453 159.545 16.2543 160.476 16.489C161.525 16.753 162.35 17.0427 162.951 17.358C163.56 17.666 163.993 18.0327 164.249 18.458C164.506 18.876 164.634 19.393 164.634 20.009C164.634 21.153 164.213 22.055 163.369 22.715C162.526 23.3677 161.364 23.694 159.882 23.694Z" fill="white"/>
<path d="M172.209 23.705C171.043 23.705 170.023 23.4483 169.151 22.935C168.285 22.4143 167.611 21.692 167.127 20.768C166.643 19.8367 166.401 18.7513 166.401 17.512C166.401 16.214 166.639 15.092 167.116 14.146C167.592 13.1927 168.256 12.4593 169.107 11.946C169.965 11.4253 170.969 11.165 172.121 11.165C173.316 11.165 174.332 11.44 175.168 11.99C176.011 12.54 176.642 13.3247 177.06 14.344C177.485 15.3633 177.668 16.577 177.61 17.985H175.63V17.281C175.607 15.8217 175.311 14.7327 174.739 14.014C174.167 13.288 173.316 12.925 172.187 12.925C170.977 12.925 170.056 13.3137 169.426 14.091C168.795 14.8683 168.48 15.983 168.48 17.435C168.48 18.8357 168.795 19.921 169.426 20.691C170.056 21.461 170.955 21.846 172.121 21.846C172.905 21.846 173.587 21.6663 174.167 21.307C174.746 20.9477 175.201 20.4307 175.531 19.756L177.412 20.405C176.95 21.4537 176.253 22.2677 175.322 22.847C174.398 23.419 173.36 23.705 172.209 23.705ZM167.82 17.985V16.412H176.598V17.985H167.82Z" fill="white"/>
<path d="M193.969 19.531H187.193L186.005 22.875H183.959L189.503 7.629H191.703L197.225 22.875H195.157L193.969 19.531ZM193.397 17.947L190.581 10.071L187.765 17.947H193.397Z" fill="white"/>
<path d="M201.854 7.629V22.875H199.852V7.629H201.854Z" fill="white"/>
</svg>
