<svg width="193" height="217" viewBox="0 0 193 217" fill="none" xmlns="http://www.w3.org/2000/svg">
<path d="M-51.2305 81.995L28.9404 52.8124L58.1039 -27.3394C58.7725 -29.1755 59.9898 -30.7615 61.5906 -31.8822C63.1914 -33.0029 65.0981 -33.604 67.0522 -33.604C69.0063 -33.604 70.9131 -33.0029 72.5139 -31.8822C74.1146 -30.7615 75.3319 -29.1755 76.0006 -27.3394L105.183 52.8315L185.354 81.995C187.19 82.6636 188.776 83.8809 189.897 85.4817C191.018 87.0825 191.619 88.9893 191.619 90.9433C191.619 92.8974 191.018 94.8042 189.897 96.405C188.776 98.0058 187.19 99.223 185.354 99.8917L105.164 129.074L76.0006 209.245C75.3319 211.081 74.1146 212.667 72.5139 213.788C70.9131 214.909 69.0063 215.51 67.0522 215.51C65.0981 215.51 63.1914 214.909 61.5906 213.788C59.9898 212.667 58.7725 211.081 58.1039 209.245L28.9212 129.055L-51.2305 99.8917C-53.0666 99.223 -54.6526 98.0058 -55.7733 96.405C-56.894 94.8042 -57.4951 92.8974 -57.4951 90.9433C-57.4951 88.9893 -56.894 87.0825 -55.7733 85.4817C-54.6526 83.8809 -53.0666 82.6636 -51.2305 81.995Z" stroke="white" stroke-opacity="0.2" stroke-width="2.47243" stroke-linecap="round" stroke-linejoin="round"/>
</svg>
